<svg xmlns="http://www.w3.org/2000/svg" viewBox="0 0 172.92 168.91"><defs><style>.cls-1{fill:none;stroke:#9d9d9c;stroke-linecap:round;stroke-linejoin:bevel;stroke-opacity:0.47;stroke-width:13.78px;}.cls-2{fill:#d1d1d1;}</style></defs><g id="Layer_2" data-name="Layer 2"><g id="svg5"><g id="layer1"><path id="path234-8" class="cls-1" d="M149.1,127.7A112.34,112.34,0,0,0,141.51,114c-2.91-4.62-6-9.27-8.68-13.83,2-8.13,36.17-33.92,33-41.66s-48.57.93-55.69-3.46S90.33,6.26,82,6.9h0c-8.34.64-14.12,46.47-20.5,51.89S8.93,62.54,7,70.67s39.83,27.8,43,35.54-12.68,51.13-5.55,55.52S83.18,118,91.52,117.32a143.1,143.1,0,0,0,17.69,21.8,70.54,70.54,0,0,0,16,12.27"/></g><rect class="cls-2" x="139.66" y="141.74" width="14.3" height="14.81" transform="translate(-44.07 63.35) rotate(-21.25)"/></g></g></svg>