<svg xmlns="http://www.w3.org/2000/svg" viewBox="0 0 96 101"><defs><style>.cls-1,.cls-2{fill:#fff;}.cls-1{stroke:#9d9d9c;stroke-miterlimit:10;stroke-width:6px;}.cls-3{fill:#9d9d9c;}</style></defs><g id="Layer_2" data-name="Layer 2"><g id="Layer_1-2" data-name="Layer 1"><path class="cls-1" d="M10.32,3H83.91a6.63,6.63,0,0,1,6.63,6.63V30a0,0,0,0,1,0,0H3a0,0,0,0,1,0,0V10.32A7.32,7.32,0,0,1,10.32,3Z"/><polygon class="cls-1" points="90.54 31 90.54 81 66.85 81 66.85 98 3 98 3 31 90.54 31"/><rect class="cls-2" x="62" y="34" width="34" height="44"/><rect class="cls-3" x="12" y="11" width="11" height="12"/><rect class="cls-3" x="28" y="11" width="11" height="12"/><rect class="cls-3" x="43" y="11" width="11" height="12"/><rect class="cls-3" x="79" y="48" width="11" height="12"/><rect class="cls-3" x="10" y="48" width="57" height="13"/><rect class="cls-3" x="11" y="70" width="37" height="13"/></g></g></svg>